<svg xmlns="http://www.w3.org/2000/svg" width="200" height="190" viewBox="0 0 200 190">
<g>
<path d="M 78.50 158.40 C56.96,153.63 35.70,139.53 26.18,123.69 C12.40,100.77 15.30,73.38 33.65,53.10 C45.11,40.43 63.72,30.80 83.35,27.37 C94.14,25.48 112.80,26.00 122.87,28.47 C150.79,35.31 172.85,54.02 180.10,77.00 C183.22,86.88 183.00,100.15 179.55,110.50 C173.92,127.34 161.17,141.38 143.62,150.05 C127.61,157.96 122.32,159.19 102.50,159.60 C89.76,159.86 83.75,159.56 78.50,158.40 ZM 88.50 150.93 C92.90,151.37 104.38,151.78 114.00,151.85 C132.86,151.98 134.76,151.58 138.34,146.76 C140.89,143.33 141.94,132.72 139.86,131.38 C139.11,130.89 121.62,130.50 101.00,130.50 C68.70,130.49 62.14,130.23 53.69,128.64 C48.30,127.62 43.60,127.07 43.25,127.41 C41.92,128.75 47.12,137.07 51.08,139.94 C58.47,145.30 72.04,149.28 88.50,150.93 ZM 132.00 51.92 C147.01,53.07 147.84,53.07 148.61,51.82 C149.61,50.20 143.02,44.67 135.78,41.05 C124.49,35.40 117.32,34.52 93.00,35.78 C81.18,36.39 69.72,37.41 67.55,38.05 C63.26,39.30 57.00,44.84 57.00,47.38 C57.00,48.24 58.10,49.67 59.45,50.56 C61.60,51.97 63.03,52.02 71.61,50.94 C81.25,49.72 109.41,50.18 132.00,51.92 ZM 37.00 113.88 C38.38,114.42 41.86,114.90 44.75,114.94 L 50.00 115.00 L 49.98 108.75 C49.97,105.31 49.46,99.35 48.84,95.50 C48.23,91.65 47.68,80.18 47.61,70.01 C47.51,52.89 47.36,51.50 45.65,51.17 C42.99,50.66 34.86,59.49 31.55,66.49 C27.03,76.03 25.66,81.86 25.64,91.50 C25.62,98.72 26.03,101.29 27.71,104.50 C30.13,109.12 33.43,112.45 37.00,113.88 ZM 151.59 128.49 L 152.22 138.48 L 157.55 132.76 C166.63,123.01 171.77,109.41 170.72,97.90 C169.84,88.09 160.78,73.89 152.62,69.49 C146.56,66.23 146.46,66.84 148.84,94.19 C150.00,107.56 151.24,123.00 151.59,128.49 ZM 62.46 107.57 C63.84,110.86 64.23,111.10 67.72,110.81 L 71.50 110.50 L 72.66 87.50 C73.54,70.04 73.54,64.33 72.66,63.76 C70.66,62.47 64.64,61.01 61.27,61.01 C56.97,61.00 56.58,62.82 57.29,79.37 C57.83,91.99 59.29,99.98 62.46,107.57 ZM 82.53 107.05 C84.76,110.66 114.04,103.93 113.98,99.81 C113.94,96.73 108.22,87.39 105.08,85.27 C102.29,83.39 100.36,83.00 93.92,83.00 C89.63,83.00 84.97,83.44 83.55,83.98 L 80.97 84.96 L 81.46 95.53 C81.72,101.34 82.20,106.52 82.53,107.05 ZM 121.50 73.43 C128.65,74.72 134.95,75.68 135.50,75.56 C136.05,75.44 136.64,73.90 136.82,72.14 C137.07,69.60 136.43,68.23 133.77,65.57 C130.87,62.67 129.51,62.11 123.95,61.56 C112.89,60.46 85.20,60.42 84.15,61.50 C83.62,62.05 83.03,64.53 82.84,67.00 C82.57,70.53 82.81,71.43 83.95,71.18 C88.93,70.09 110.01,71.35 121.50,73.43 ZM 73.00 122.36 C79.40,124.43 123.00,119.29 123.00,116.47 C123.00,114.01 118.35,108.50 116.44,108.69 C115.37,108.79 110.68,110.06 106.00,111.50 C94.35,115.11 82.17,117.18 71.75,117.31 C66.94,117.38 63.00,117.75 63.00,118.13 C63.00,118.73 66.95,120.40 73.00,122.36 ZM 133.61 118.75 C134.14,120.78 137.76,120.18 139.44,117.78 C142.48,113.44 140.27,90.83 136.59,88.53 C134.23,87.06 121.00,85.53 121.00,86.72 C121.00,87.15 123.24,92.00 125.99,97.50 C128.73,103.00 131.49,109.75 132.12,112.50 C132.76,115.25 133.42,118.06 133.61,118.75 Z" fill="rgba(1,1,2,1)"/>
<path d="M 37.00 113.88 C33.43,112.45 30.13,109.12 27.71,104.50 C26.03,101.29 25.62,98.72 25.64,91.50 C25.66,81.86 27.03,76.03 31.55,66.49 C34.86,59.49 42.99,50.66 45.65,51.17 C47.36,51.50 47.51,52.89 47.61,70.01 C47.68,80.18 48.23,91.65 48.84,95.50 C49.46,99.35 49.97,105.31 49.98,108.75 L 50.00 115.00 L 44.75 114.94 C41.86,114.90 38.38,114.42 37.00,113.88 Z" fill="rgba(23,153,182,1)"/>
<path d="M 73.00 122.36 C66.95,120.40 63.00,118.73 63.00,118.13 C63.00,117.75 66.94,117.38 71.75,117.31 C82.17,117.18 94.35,115.11 106.00,111.50 C110.68,110.06 115.37,108.79 116.44,108.69 C118.35,108.50 123.00,114.01 123.00,116.47 C123.00,119.29 79.40,124.43 73.00,122.36 Z" fill="rgba(56,149,105,1)"/>
<path d="M 133.61 118.75 C133.42,118.06 132.76,115.25 132.12,112.50 C131.49,109.75 128.73,103.00 125.99,97.50 C123.24,92.00 121.00,87.15 121.00,86.72 C121.00,85.53 134.23,87.06 136.59,88.53 C140.27,90.83 142.48,113.44 139.44,117.78 C137.76,120.18 134.14,120.78 133.61,118.75 Z" fill="rgba(138,203,235,1)"/>
<path d="M 151.59 128.49 C151.24,123.00 150.00,107.56 148.84,94.19 C146.46,66.84 146.56,66.23 152.62,69.49 C160.78,73.89 169.84,88.09 170.72,97.90 C171.77,109.41 166.63,123.01 157.55,132.76 L 152.22 138.48 Z" fill="rgba(145,182,44,1)"/>
<path d="M 132.00 51.92 C109.41,50.18 81.25,49.72 71.61,50.94 C63.03,52.02 61.60,51.97 59.45,50.56 C58.10,49.67 57.00,48.24 57.00,47.38 C57.00,44.84 63.26,39.30 67.55,38.05 C69.72,37.41 81.18,36.39 93.00,35.78 C117.32,34.52 124.49,35.40 135.78,41.05 C143.02,44.67 149.61,50.20 148.61,51.82 C147.84,53.07 147.01,53.07 132.00,51.92 ZM 62.46 107.57 C59.29,99.98 57.83,91.99 57.29,79.37 C56.58,62.82 56.97,61.00 61.27,61.01 C64.64,61.01 70.66,62.47 72.66,63.76 C73.54,64.33 73.54,70.04 72.66,87.50 L 71.50 110.50 L 67.72 110.81 C64.23,111.10 63.84,110.86 62.46,107.57 Z" fill="rgba(206,14,98,1)"/>
<path d="M 88.50 150.93 C72.04,149.28 58.47,145.30 51.08,139.94 C47.12,137.07 41.92,128.75 43.25,127.41 C43.60,127.07 48.30,127.62 53.69,128.64 C62.14,130.23 68.70,130.49 101.00,130.50 C121.62,130.50 139.11,130.89 139.86,131.38 C141.94,132.72 140.89,143.33 138.34,146.76 C134.76,151.58 132.86,151.98 114.00,151.85 C104.38,151.78 92.90,151.37 88.50,150.93 Z" fill="rgba(235,145,20,1)"/>
<path d="M 121.50 73.43 C110.01,71.35 88.93,70.09 83.95,71.18 C82.81,71.43 82.57,70.53 82.84,67.00 C83.03,64.53 83.62,62.05 84.15,61.50 C85.20,60.42 112.89,60.46 123.95,61.56 C129.51,62.11 130.87,62.67 133.77,65.57 C136.43,68.23 137.07,69.60 136.82,72.14 C136.64,73.90 136.05,75.44 135.50,75.56 C134.95,75.68 128.65,74.72 121.50,73.43 Z" fill="rgba(245,194,36,1)"/>
<path d="M 82.53 107.05 C82.20,106.52 81.72,101.34 81.46,95.53 L 80.97 84.96 L 83.55 83.98 C84.97,83.44 89.63,83.00 93.92,83.00 C100.36,83.00 102.29,83.39 105.08,85.27 C108.22,87.39 113.94,96.73 113.98,99.81 C114.04,103.93 84.76,110.66 82.53,107.05 Z" fill="rgba(255,255,255,1)"/>
</g>
</svg>